<svg width="391" height="156" viewBox="0 0 391 156" fill="none" xmlns="http://www.w3.org/2000/svg">
<path fill-rule="evenodd" clip-rule="evenodd" d="M7.6594 38.6892C10.2327 20.9249 25.5227 7.2782 44 7.2782C62.4817 7.2782 77.7745 20.9314 80.3424 38.7018C76.6899 38.6672 71.6256 38.4315 67.3902 36.9308C62.1084 35.0593 58.0395 32.995 55.078 30.9801C52.5407 27.6345 48.5227 25.4737 44 25.4737C39.7646 25.4737 35.9719 27.3687 33.4233 30.3571C33.3792 30.3856 33.3356 30.4152 33.2924 30.4458C30.2192 32.6268 25.8262 34.8894 19.9774 36.9238C15.9898 38.3108 11.287 38.6215 7.6594 38.6892ZM57.816 40.8568C57.0733 47.8308 51.171 53.2632 44 53.2632C36.7673 53.2632 30.8254 47.737 30.166 40.6766C27.8813 41.7491 25.3123 42.7741 22.3685 43.798C17.1906 45.599 11.2839 45.9247 7.33056 45.978C7.50843 49.3292 8.13559 52.5611 9.1529 55.6147C13.3814 52.6879 19.7663 50.5189 27.578 53.8922C35.0205 57.106 38.3882 63.0582 39.764 68.7864C40.7981 73.0917 40.7465 77.404 40.5429 80.5612C41.681 80.6675 42.8342 80.7218 44 80.7218C45.0428 80.7218 46.0753 80.6784 47.0957 80.5933C46.8942 77.4359 46.8395 73.1147 47.8565 68.8012C49.2018 63.0952 52.5004 57.1298 59.8382 53.902C67.9704 50.3247 74.5338 52.9426 78.6809 56.1052C79.7955 52.9113 80.4812 49.5158 80.6691 45.9863C76.8252 45.968 70.474 45.745 64.9594 43.791C62.1508 42.7959 59.8432 41.846 57.816 40.8568ZM63.0699 75.3889C60.3613 77.0383 57.4225 78.347 54.3119 79.2552C54.1832 76.5946 54.2307 73.4817 54.9404 70.4714C55.9225 66.3058 58.0906 62.622 62.7688 60.5641C68.5162 58.0359 72.9211 60.4298 75.4811 62.9176C74.9193 63.8503 74.3173 64.7559 73.6773 65.6323C73.4063 66.0034 73.2158 66.4086 73.1026 66.8271H81.6223C85.6689 60.1706 88 52.3536 88 44C88 19.6995 68.3005 0 44 0C19.6995 0 0 19.6995 0 44C0 68.3005 19.6995 88 44 88C51.2685 88 58.1332 86.2349 64.1805 83.1087V74.9419C63.7981 75.0261 63.4229 75.1739 63.0699 75.3889ZM32.6871 70.4861C33.3989 73.4498 33.4553 76.5139 33.3308 79.1479C24.3559 76.4271 16.8346 70.3629 12.2164 62.4048C14.8958 60.1245 19.1958 58.2004 24.6927 60.574C29.4908 62.6459 31.692 66.3428 32.6871 70.4861ZM44 46.6466C48.0196 46.6466 51.2782 43.3881 51.2782 39.3684C51.2782 35.3488 48.0196 32.0902 44 32.0902C39.9804 32.0902 36.7218 35.3488 36.7218 39.3684C36.7218 43.3881 39.9804 46.6466 44 46.6466Z" fill="#074292"/>
<path d="M114.285 137.356C111.453 137.356 108.969 137.068 106.833 136.492C104.697 135.892 102.909 135.244 101.469 134.548L100.821 128.104C102.597 128.992 104.553 129.772 106.689 130.444C108.825 131.092 111.225 131.416 113.889 131.416C116.457 131.416 118.353 131.044 119.577 130.3C120.825 129.532 121.449 128.404 121.449 126.916V126.628C121.449 125.668 121.197 124.876 120.693 124.252C120.189 123.604 119.289 123.028 117.993 122.524C116.721 122.02 114.909 121.504 112.557 120.976C109.605 120.304 107.277 119.512 105.573 118.6C103.869 117.688 102.645 116.572 101.901 115.252C101.181 113.908 100.821 112.3 100.821 110.428V110.104C100.821 106.936 101.925 104.536 104.133 102.904C106.341 101.272 109.653 100.456 114.069 100.456C116.853 100.456 119.277 100.756 121.341 101.356C123.405 101.956 125.109 102.64 126.453 103.408L127.101 109.276C125.493 108.412 123.657 107.692 121.593 107.116C119.553 106.516 117.285 106.216 114.789 106.216C113.085 106.216 111.717 106.384 110.685 106.72C109.653 107.032 108.909 107.488 108.453 108.088C107.997 108.664 107.769 109.36 107.769 110.176V110.428C107.769 111.316 108.009 112.096 108.489 112.768C108.969 113.416 109.821 114.004 111.045 114.532C112.293 115.036 114.021 115.528 116.229 116.008C119.205 116.632 121.581 117.364 123.357 118.204C125.133 119.044 126.417 120.124 127.209 121.444C128.001 122.74 128.397 124.42 128.397 126.484V127.024C128.397 130.456 127.221 133.036 124.869 134.764C122.517 136.492 118.989 137.356 114.285 137.356Z" fill="white"/>
<path d="M142.136 136.528H135.08V101.32H142.136V136.528ZM138.608 96.136C137.216 96.136 136.172 95.788 135.476 95.092C134.804 94.372 134.468 93.388 134.468 92.14V91.996C134.468 90.748 134.804 89.776 135.476 89.08C136.172 88.36 137.216 88 138.608 88C140 88 141.032 88.36 141.704 89.08C142.4 89.776 142.748 90.748 142.748 91.996V92.14C142.748 93.412 142.4 94.396 141.704 95.092C141.032 95.788 140 96.136 138.608 96.136Z" fill="white"/>
<path d="M201.94 136.528H194.884V114.604C194.884 112.948 194.668 111.508 194.236 110.284C193.828 109.036 193.132 108.076 192.148 107.404C191.188 106.732 189.88 106.396 188.224 106.396C186.64 106.396 185.272 106.708 184.12 107.332C182.968 107.956 182.032 108.796 181.312 109.852C180.616 110.908 180.112 112.108 179.8 113.452L178.864 108.556H179.692C180.124 107.14 180.784 105.82 181.672 104.596C182.56 103.372 183.76 102.388 185.272 101.644C186.784 100.9 188.692 100.528 190.996 100.528C193.588 100.528 195.688 101.044 197.296 102.076C198.904 103.084 200.08 104.584 200.824 106.576C201.568 108.544 201.94 110.956 201.94 113.812V136.528ZM158.2 136.528H151.144V101.32H158.2L157.912 109.564L158.2 109.996V136.528ZM180.052 136.528H173.032V114.604C173.032 112.948 172.816 111.508 172.384 110.284C171.976 109.036 171.28 108.076 170.296 107.404C169.336 106.732 168.028 106.396 166.372 106.396C164.788 106.396 163.42 106.708 162.268 107.332C161.116 107.956 160.18 108.796 159.46 109.852C158.764 110.908 158.26 112.108 157.948 113.452L156.796 108.556H158.308C158.692 107.068 159.316 105.724 160.18 104.524C161.068 103.3 162.244 102.328 163.708 101.608C165.172 100.888 166.972 100.528 169.108 100.528C172.372 100.528 174.844 101.368 176.524 103.048C178.204 104.728 179.26 107.176 179.692 110.392C179.812 110.848 179.896 111.364 179.944 111.94C180.016 112.516 180.052 113.08 180.052 113.632V136.528Z" fill="white"/>
<path d="M215.74 115.252L214.228 109.744H215.956C216.7 106.96 217.948 104.776 219.7 103.192C221.452 101.584 223.84 100.78 226.864 100.78C227.584 100.78 228.22 100.84 228.772 100.96C229.348 101.056 229.864 101.176 230.32 101.32L230.752 108.196C230.176 108.004 229.528 107.86 228.808 107.764C228.088 107.644 227.308 107.584 226.468 107.584C223.9 107.584 221.68 108.244 219.808 109.564C217.936 110.884 216.58 112.78 215.74 115.252ZM216.028 136.528H208.972V101.32H215.848L215.524 111.58L216.028 112.084V136.528Z" fill="white"/>
<path d="M262.989 136.528H255.969L256.257 128.176L256.005 127.096V116.008L256.041 114.244C256.041 111.532 255.345 109.54 253.953 108.268C252.585 106.996 250.377 106.36 247.329 106.36C244.857 106.36 242.565 106.708 240.453 107.404C238.341 108.1 236.433 108.904 234.729 109.816L235.377 103.912C236.337 103.36 237.465 102.82 238.761 102.292C240.057 101.764 241.521 101.332 243.153 100.996C244.785 100.66 246.573 100.492 248.517 100.492C251.181 100.492 253.437 100.816 255.285 101.464C257.133 102.088 258.621 103 259.749 104.2C260.877 105.4 261.693 106.84 262.197 108.52C262.725 110.2 262.989 112.072 262.989 114.136V136.528ZM244.053 137.32C240.573 137.32 237.909 136.468 236.061 134.764C234.213 133.036 233.289 130.588 233.289 127.42V126.34C233.289 122.98 234.321 120.496 236.385 118.888C238.473 117.256 241.749 116.128 246.213 115.504L256.797 113.992L257.193 119.104L247.041 120.544C244.617 120.88 242.889 121.468 241.857 122.308C240.825 123.124 240.309 124.336 240.309 125.944V126.448C240.309 128.056 240.801 129.292 241.785 130.156C242.793 131.02 244.317 131.452 246.357 131.452C248.229 131.452 249.837 131.14 251.181 130.516C252.525 129.892 253.617 129.064 254.457 128.032C255.297 126.976 255.873 125.812 256.185 124.54L257.157 129.256H255.861C255.477 130.696 254.841 132.028 253.953 133.252C253.065 134.476 251.817 135.46 250.209 136.204C248.625 136.948 246.573 137.32 244.053 137.32Z" fill="white"/>
<path d="M285.345 137.356C280.113 137.356 276.225 135.976 273.681 133.216C271.161 130.432 269.901 126.508 269.901 121.444V116.368C269.901 111.28 271.173 107.356 273.717 104.596C276.261 101.836 280.137 100.456 285.345 100.456C286.785 100.456 288.105 100.588 289.305 100.852C290.529 101.116 291.633 101.464 292.617 101.896C293.601 102.304 294.441 102.736 295.137 103.192L295.749 109.24C294.597 108.424 293.265 107.74 291.753 107.188C290.241 106.612 288.477 106.324 286.461 106.324C283.245 106.324 280.857 107.2 279.297 108.952C277.761 110.68 276.993 113.2 276.993 116.512V121.264C276.993 124.504 277.761 127 279.297 128.752C280.857 130.504 283.245 131.38 286.461 131.38C288.501 131.38 290.301 131.104 291.861 130.552C293.421 129.976 294.825 129.28 296.073 128.464L295.461 134.584C294.357 135.28 292.941 135.916 291.213 136.492C289.509 137.068 287.553 137.356 285.345 137.356Z" fill="white"/>
<path d="M309.862 136.528H302.806V101.32H309.862V136.528ZM306.334 96.136C304.942 96.136 303.898 95.788 303.202 95.092C302.53 94.372 302.194 93.388 302.194 92.14V91.996C302.194 90.748 302.53 89.776 303.202 89.08C303.898 88.36 304.942 88 306.334 88C307.726 88 308.758 88.36 309.43 89.08C310.126 89.776 310.474 90.748 310.474 91.996V92.14C310.474 93.412 310.126 94.396 309.43 95.092C308.758 95.788 307.726 96.136 306.334 96.136Z" fill="white"/>
<path d="M349.254 136.528H342.198V114.784C342.198 113.08 341.958 111.604 341.478 110.356C341.022 109.108 340.254 108.136 339.174 107.44C338.118 106.744 336.666 106.396 334.818 106.396C333.114 106.396 331.638 106.708 330.39 107.332C329.142 107.956 328.122 108.796 327.33 109.852C326.562 110.908 326.01 112.108 325.674 113.452L324.522 108.556H326.034C326.442 107.068 327.114 105.724 328.05 104.524C328.986 103.3 330.234 102.328 331.794 101.608C333.354 100.888 335.286 100.528 337.59 100.528C340.35 100.528 342.582 101.056 344.286 102.112C345.99 103.144 347.238 104.656 348.03 106.648C348.846 108.64 349.254 111.088 349.254 113.992V136.528ZM325.926 136.528H318.87V101.32H325.926L325.638 109.564L325.926 109.996V136.528Z" fill="white"/>
<path d="M371.901 125.872C366.957 125.872 363.165 124.816 360.525 122.704C357.885 120.592 356.565 117.58 356.565 113.668V113.092C356.565 110.62 357.081 108.484 358.113 106.684C359.145 104.86 360.789 103.444 363.045 102.436C365.325 101.404 368.301 100.828 371.973 100.708L390.261 100.096V105.604L380.469 105.172V105.568C381.861 105.928 383.013 106.492 383.925 107.26C384.861 108.004 385.569 108.94 386.049 110.068C386.529 111.196 386.769 112.528 386.769 114.064V114.46C386.769 118.156 385.509 120.988 382.989 122.956C380.493 124.9 376.797 125.872 371.901 125.872ZM371.613 144.484H372.513C374.553 144.484 376.281 144.34 377.697 144.052C379.113 143.764 380.193 143.308 380.937 142.684C381.705 142.06 382.089 141.232 382.089 140.2V140.092C382.089 138.868 381.657 137.944 380.793 137.32C379.929 136.72 378.429 136.324 376.293 136.132L366.141 135.16L367.905 135.088C366.753 135.28 365.733 135.58 364.845 135.988C363.981 136.372 363.297 136.876 362.793 137.5C362.313 138.148 362.073 138.94 362.073 139.876V139.948C362.073 141.052 362.445 141.94 363.189 142.612C363.957 143.284 365.049 143.764 366.465 144.052C367.905 144.34 369.621 144.484 371.613 144.484ZM372.369 150.1H371.181C367.941 150.1 365.145 149.812 362.793 149.236C360.465 148.684 358.665 147.784 357.393 146.536C356.145 145.312 355.521 143.68 355.521 141.64V141.496C355.521 140.128 355.821 138.976 356.421 138.04C357.045 137.104 357.885 136.36 358.941 135.808C360.021 135.232 361.221 134.848 362.541 134.656V134.296C360.789 133.936 359.481 133.348 358.617 132.532C357.777 131.692 357.357 130.612 357.357 129.292V129.256C357.357 128.344 357.561 127.564 357.969 126.916C358.377 126.244 358.989 125.716 359.805 125.332C360.645 124.924 361.689 124.66 362.937 124.54V123.748L370.353 125.548L367.653 125.44C366.237 125.464 365.253 125.644 364.701 125.98C364.173 126.316 363.909 126.796 363.909 127.42V127.456C363.909 128.176 364.305 128.716 365.097 129.076C365.913 129.412 367.281 129.688 369.201 129.904L377.769 130.84C381.561 131.248 384.333 132.172 386.085 133.612C387.837 135.052 388.713 137.236 388.713 140.164V140.344C388.713 142.6 388.053 144.448 386.733 145.888C385.437 147.328 383.565 148.384 381.117 149.056C378.693 149.752 375.777 150.1 372.369 150.1ZM371.793 120.688C373.641 120.688 375.177 120.424 376.401 119.896C377.649 119.344 378.585 118.528 379.209 117.448C379.833 116.368 380.145 115.048 380.145 113.488V112.948C380.145 111.412 379.833 110.116 379.209 109.06C378.609 108.004 377.697 107.2 376.473 106.648C375.273 106.096 373.749 105.82 371.901 105.82H371.721C369.729 105.82 368.109 106.12 366.861 106.72C365.613 107.296 364.701 108.124 364.125 109.204C363.573 110.26 363.297 111.52 363.297 112.984V113.488C363.297 115.048 363.609 116.368 364.233 117.448C364.857 118.528 365.793 119.344 367.041 119.896C368.313 120.424 369.897 120.688 371.793 120.688Z" fill="white"/>
<path d="M36.72 140H28.88V115.84C28.88 113.947 28.6133 112.307 28.08 110.92C27.5733 109.533 26.72 108.453 25.52 107.68C24.3466 106.907 22.7333 106.52 20.68 106.52C18.7866 106.52 17.1466 106.867 15.76 107.56C14.3733 108.253 13.24 109.187 12.36 110.36C11.5066 111.533 10.8933 112.867 10.52 114.36L9.23996 108.92H10.92C11.3733 107.267 12.12 105.773 13.16 104.44C14.2 103.08 15.5866 102 17.32 101.2C19.0533 100.4 21.2 100 23.76 100C26.8266 100 29.3066 100.587 31.2 101.76C33.0933 102.907 34.48 104.587 35.36 106.8C36.2666 109.013 36.72 111.733 36.72 114.96V140ZM10.8 140H2.95996V100.88H10.8L10.48 110.04L10.8 110.52V140Z" fill="#074292"/>
<path d="M61.8831 128.16C56.3898 128.16 52.1764 126.987 49.2431 124.64C46.3098 122.293 44.8431 118.947 44.8431 114.6V113.96C44.8431 111.213 45.4164 108.84 46.5631 106.84C47.7098 104.813 49.5364 103.24 52.0431 102.12C54.5764 100.973 57.8831 100.333 61.9631 100.2L82.2831 99.52V105.64L71.4031 105.16V105.6C72.9498 106 74.2298 106.627 75.2431 107.48C76.2831 108.307 77.0698 109.347 77.6031 110.6C78.1364 111.853 78.4031 113.333 78.4031 115.04V115.48C78.4031 119.587 77.0031 122.733 74.2031 124.92C71.4298 127.08 67.3231 128.16 61.8831 128.16ZM61.5631 148.84H62.5631C64.8298 148.84 66.7498 148.68 68.3231 148.36C69.8964 148.04 71.0964 147.533 71.9231 146.84C72.7764 146.147 73.2031 145.227 73.2031 144.08V143.96C73.2031 142.6 72.7231 141.573 71.7631 140.88C70.8031 140.213 69.1364 139.773 66.7631 139.56L55.4831 138.48L57.4431 138.4C56.1631 138.613 55.0298 138.947 54.0431 139.4C53.0831 139.827 52.3231 140.387 51.7631 141.08C51.2298 141.8 50.9631 142.68 50.9631 143.72V143.8C50.9631 145.027 51.3764 146.013 52.2031 146.76C53.0564 147.507 54.2698 148.04 55.8431 148.36C57.4431 148.68 59.3498 148.84 61.5631 148.84ZM62.4031 155.08H61.0831C57.4831 155.08 54.3764 154.76 51.7631 154.12C49.1764 153.507 47.1764 152.507 45.7631 151.12C44.3764 149.76 43.6831 147.947 43.6831 145.68V145.52C43.6831 144 44.0164 142.72 44.6831 141.68C45.3764 140.64 46.3098 139.813 47.4831 139.2C48.6831 138.56 50.0164 138.133 51.4831 137.92V137.52C49.5364 137.12 48.0831 136.467 47.1231 135.56C46.1898 134.627 45.7231 133.427 45.7231 131.96V131.92C45.7231 130.907 45.9498 130.04 46.4031 129.32C46.8564 128.573 47.5364 127.987 48.4431 127.56C49.3764 127.107 50.5364 126.813 51.9231 126.68V125.8L60.1631 127.8L57.1631 127.68C55.5898 127.707 54.4964 127.907 53.8831 128.28C53.2964 128.653 53.0031 129.187 53.0031 129.88V129.92C53.0031 130.72 53.4431 131.32 54.3231 131.72C55.2298 132.093 56.7498 132.4 58.8831 132.64L68.4031 133.68C72.6164 134.133 75.6964 135.16 77.6431 136.76C79.5898 138.36 80.5631 140.787 80.5631 144.04V144.24C80.5631 146.747 79.8298 148.8 78.3631 150.4C76.9231 152 74.8431 153.173 72.1231 153.92C69.4298 154.693 66.1898 155.08 62.4031 155.08ZM61.7631 122.4C63.8164 122.4 65.5231 122.107 66.8831 121.52C68.2698 120.907 69.3098 120 70.0031 118.8C70.6964 117.6 71.0431 116.133 71.0431 114.4V113.8C71.0431 112.093 70.6964 110.653 70.0031 109.48C69.3364 108.307 68.3231 107.413 66.9631 106.8C65.6298 106.187 63.9364 105.88 61.8831 105.88H61.6831C59.4698 105.88 57.6698 106.213 56.2831 106.88C54.8964 107.52 53.8831 108.44 53.2431 109.64C52.6298 110.813 52.3231 112.213 52.3231 113.84V114.4C52.3231 116.133 52.6698 117.6 53.3631 118.8C54.0564 120 55.0964 120.907 56.4831 121.52C57.8964 122.107 59.6564 122.4 61.7631 122.4Z" fill="#074292"/>
</svg>
